<svg xmlns="http://www.w3.org/2000/svg" width="27.668" height="24.75" viewBox="0 0 27.668 24.75">
  <g id="XMLID_774_" transform="translate(0 0)">
    <g id="XMLID_2072_" transform="translate(0)">
      <path id="XMLID_2107_" d="M144.987,289a.54.54,0,0,0-.54.54v4.192a.54.54,0,1,0,1.081,0V289.54A.54.54,0,0,0,144.987,289Z" transform="translate(-136.641 -274.842)" fill="#271e1e"/>
      <path id="XMLID_2190_" d="M236.54,289a.54.54,0,0,0-.54.54v4.192a.54.54,0,1,0,1.081,0V289.54A.54.54,0,0,0,236.54,289Z" transform="translate(-223.247 -274.842)" fill="#271e1e"/>
      <path id="XMLID_2193_" d="M24.4,41.564l.574-3.537h1.069a.54.54,0,0,0,.54-.54V33.1a.54.54,0,0,0-.54-.54h-3.08a.54.54,0,0,0,0,1.081h2.54v3.307H15.032a2.036,2.036,0,0,0,.244-.968V33.639H18.1a.54.54,0,1,0,0-1.081H15.275V29.049a2.049,2.049,0,1,0-4.1,0v3.509H.54A.54.54,0,0,0,0,33.1v4.388a.54.54,0,0,0,.54.54H1.609L3.582,50.189a.54.54,0,0,0,.533.454h15.02A5.295,5.295,0,1,0,24.4,41.564ZM12.258,29.049a.968.968,0,1,1,1.936,0v6.929a.968.968,0,0,1-1.936,0ZM1.081,33.639h10.1v2.339a2.039,2.039,0,0,0,.242.968H1.081ZM2.7,38.027H23.883l-.523,3.224a5.289,5.289,0,0,0-4.579,1.314V41.7a.54.54,0,1,0-1.081,0v2.263a5.285,5.285,0,0,0,.387,5.6H4.576ZM22.372,50.669a4.215,4.215,0,1,1,4.215-4.215A4.22,4.22,0,0,1,22.372,50.669Z" transform="translate(0 -27)" fill="#271e1e"/>
      <path id="XMLID_2203_" d="M374.215,344.837h-1.3v-1.3a.54.54,0,0,0-1.081,0v1.3h-1.3a.54.54,0,0,0,0,1.081h1.3v1.3a.54.54,0,0,0,1.081,0v-1.3h1.3a.54.54,0,0,0,0-1.081Z" transform="translate(-350.006 -325.924)" fill="#271e1e"/>
      <path id="XMLID_2204_" d="M370.54,130.931a.541.541,0,1,0-.382-.158A.544.544,0,0,0,370.54,130.931Z" transform="translate(-350.006 -124.292)" fill="#271e1e"/>
    </g>
  </g>
</svg>
